<svg class="svg-icon" style="width: 1.0029296875em;height: 1em;vertical-align: middle;fill: currentColor;overflow: hidden;" viewBox="0 0 1027 1024" version="1.1" xmlns="http://www.w3.org/2000/svg"><path d="M898.074393 1007.483188c33.542766 33.669104 54.262214 9.728034 81.80392-17.750503 27.541706-27.478537 51.419607-48.261155 17.876842-81.867089 0 0-467.577313-467.135129-583.050338-582.292309L315.024055 425.19088l583.050338 582.292308zM129.370216 506.299941l38.785797-38.154107s-17.118813-46.934605 7.9593-69.422786 67.401377-8.590991 67.401377-8.590991L379.645994 258.550924s-9.538527-68.412082 3.095284-81.045892c12.63381-12.63381 153.816638-81.424906 167.461153-95.195759L521.207837 53.314679s-197.59279 23.751563-219.007099 45.102702c-12.570641 12.63381-106.629357 107.640062-173.714889 174.725594 0 0 16.802967 47.945309-5.3062 70.054477-22.172337 22.172337-72.075887 6.316905-72.075887 6.316905l-39.354319 39.29115c-16.61346 16.739798-6.822257 40.238685 13.581346 60.642288l43.333969 43.333969c20.529941 20.466772 44.091997 30.131637 60.705458 13.518177zM741.162471 411.546365c68.033068 32.279385 153.374455 22.361844 209.847586-34.111288 43.586645-43.586645 60.894965-103.534074 51.609114-159.880867l-96.080126 95.953788-81.740751 20.277265-92.353152-91.089771 21.666984-84.45702 95.19576-93.995548c-56.409962-9.222681-120.147534 4.105988-163.73418 47.755803-56.5363 56.5363-64.242924 143.962266-31.963539 212.058503l-62.790037 62.726867 87.678643 87.489135 62.663698-62.726867zM469.472384 702.376674L374.402963 607.370422l-82.625118 82.688287a51.92496 51.92496 0 0 0-11.433598 16.802967c-4.864017-1.895072-7.580286-1.958241-9.285851-1.263381a158.175303 158.175303 0 0 0-49.966719-8.780498c-87.236459 0-157.922627 69.801801-157.922626 155.964386 0 86.162585 70.686168 155.964386 157.922626 155.964386S379.014304 938.944768 379.014304 852.782183c0-17.876841-3.726974-34.806147-9.222682-50.787916-0.315845-1.516057-0.379014-2.905776-1.263381-5.116693a53.8832 53.8832 0 0 0 18.192687-11.875782l82.751456-82.625118zM221.091677 943.619278c-51.293269 0-92.795335-40.6177-92.795335-90.837095 0-50.219395 41.438897-90.837095 92.795335-90.837094 51.356438 0 92.795335 40.6177 92.795336 90.837094 0 50.219395-41.502066 90.837095-92.795336 90.837095z" fill="#434343" /></svg>